<?xml version="1.0" encoding="UTF-8"?>
<svg version="1.1" xmlns="http://www.w3.org/2000/svg" width="1000" height="360">
<path d="M0 0 C2.55545948 0.00373749 5.1109204 0.00658098 7.66638184 0.00857544 C13.66181398 0.01538299 19.65715658 0.0310804 25.65255308 0.05127442 C32.4895428 0.07379288 39.32653649 0.08466653 46.16355419 0.09466529 C60.20282719 0.11545247 74.24203447 0.1505277 88.28125 0.1953125 C88.38296063 7.06022527 88.17690402 13.76088275 87.40625 20.58203125 C87.31746582 21.40991653 87.22868164 22.23780182 87.13720703 23.09077454 C86.85734704 25.68874767 86.56946278 28.2857542 86.28125 30.8828125 C86.08800547 32.66335335 85.89529285 34.443952 85.703125 36.22460938 C85.23529593 40.54886797 84.76027747 44.8722807 84.28125 49.1953125 C83.70294245 49.19862265 83.1246349 49.20193279 82.52880287 49.20534325 C68.42182116 49.28675677 54.31494323 49.37890842 40.2081089 49.48283958 C33.38599487 49.53284527 26.56389214 49.57928895 19.74169922 49.6171875 C13.15398045 49.6537937 6.56638308 49.70053758 -0.02122879 49.75337601 C-2.53050123 49.77186265 -5.0398008 49.78699159 -7.54911423 49.79865646 C-11.0724248 49.815617 -14.59544854 49.84467589 -18.11865234 49.87646484 C-19.14868378 49.87862503 -20.17871521 49.88078522 -21.23995972 49.88301086 C-32.76165899 49.88080197 -32.76165899 49.88080197 -42.78125 54.6953125 C-44.71129369 57.01838621 -44.71129369 57.01838621 -45.71875 59.1953125 C-43.85793822 64.54390329 -43.85793822 64.54390329 -39.71875 68.1953125 C-32.72111265 69.52239584 -25.62159291 69.35980393 -18.52230453 69.39454269 C-16.29140626 69.40648845 -14.06068834 69.42598019 -11.8298645 69.44766235 C-5.49178237 69.50874342 0.84627771 69.56309052 7.18457031 69.59667969 C11.07786387 69.61785317 14.97082009 69.65332917 18.8639183 69.69743729 C20.3315822 69.71141623 21.79930567 69.72027783 23.26703262 69.72349167 C40.37329033 69.76490295 57.37723119 72.11020258 70.28125 84.1953125 C77.05345031 91.32151419 80.65896292 100.33133811 82.34863281 109.90893555 C82.52452942 110.89903122 82.70042603 111.88912689 82.88165283 112.90922546 C83.0135199 113.66363419 83.14538696 114.41804291 83.28125 115.1953125 C83.36490389 114.35186012 83.36490389 114.35186012 83.45024776 113.49136829 C84.80801771 99.80320031 86.1685669 86.11531103 87.53210354 72.42771626 C88.19141792 65.80846683 88.84980977 59.18912973 89.50610352 52.56958008 C90.13935914 46.18274288 90.77502494 39.79614976 91.41237068 33.40971947 C91.65524416 30.97173813 91.89724542 28.53366974 92.13836479 26.0955143 C92.47592883 22.68364099 92.81657766 19.27208887 93.15795898 15.8605957 C93.25722183 14.84999084 93.35648468 13.83938599 93.45875549 12.79815674 C93.59965103 11.39951134 93.59965103 11.39951134 93.74339294 9.97261047 C93.86368693 8.76275718 93.86368693 8.76275718 93.98641109 7.52846241 C94.29760998 5.06585104 94.79445121 2.62930643 95.28125 0.1953125 C111.78125 0.1953125 128.28125 0.1953125 145.28125 0.1953125 C142.97608033 26.70476374 142.97608033 26.70476374 141.52999878 39.85076904 C141.09492157 43.82084793 140.66278375 47.79121615 140.23440552 51.76202393 C139.30954684 60.33118875 138.38009311 68.89984499 137.44384766 77.46777344 C136.8659545 82.75869544 136.29380199 88.05021277 135.72519302 93.3421402 C135.50968389 95.33728724 135.2920268 97.33220359 135.0720787 99.32686615 C131.8454504 116.34125475 131.8454504 116.34125475 135.28125 132.1953125 C139.2665992 134.46569446 143.25659111 134.50000699 147.73364258 134.51416016 C148.4658905 134.52420578 149.19813843 134.5342514 149.95257568 134.54460144 C152.36030327 134.57536321 154.76792002 134.59244883 157.17578125 134.609375 C158.85016326 134.62809231 160.52453589 134.64766614 162.19889832 134.6680603 C166.59645046 134.71932811 170.99403316 134.75898241 175.39172363 134.79620361 C179.88297045 134.83627686 184.37409072 134.88735404 188.86523438 134.9375 C197.67048638 135.03419592 206.47580115 135.11862088 215.28125 135.1953125 C215.35196921 134.26552582 215.35196921 134.26552582 215.42411709 133.31695557 C216.68698735 116.8363682 218.18762387 100.39026643 219.84765625 83.9453125 C220.08911846 81.53964155 220.33048514 79.13396102 220.57176208 76.72827148 C221.07170282 71.75014513 221.57363951 66.77222495 222.0769043 61.79443359 C222.72283224 55.402653 223.36223542 49.01023718 224.00007725 42.61764526 C224.49371832 37.67963963 224.9913885 32.74204639 225.49024773 27.80456543 C225.72809554 25.44427635 225.96451661 23.08384305 226.19949532 20.7232666 C226.52535636 17.45439269 226.85678024 14.18613049 227.18969727 10.91796875 C227.28581802 9.94160965 227.38193878 8.96525055 227.48097229 7.95930481 C227.57201233 7.07691635 227.66305237 6.19452789 227.7568512 5.28540039 C227.83444955 4.51498917 227.9120479 3.74457794 227.99199772 2.95082092 C228.28125 1.1953125 228.28125 1.1953125 229.28125 0.1953125 C230.87735982 0.10197545 232.47758428 0.07785878 234.07641602 0.08178711 C235.09739883 0.08186264 236.11838165 0.08193817 237.17030334 0.08201599 C238.2807048 0.08717728 239.39110626 0.09233856 240.53515625 0.09765625 C242.23103127 0.09977867 242.23103127 0.09977867 243.96116638 0.10194397 C247.58872065 0.10756231 251.21621424 0.12011792 254.84375 0.1328125 C257.29622307 0.13782514 259.7486971 0.14238845 262.20117188 0.14648438 C268.22788545 0.1575377 274.25456339 0.17429366 280.28125 0.1953125 C280.55035577 9.07894399 279.53398603 17.8264049 278.62890625 26.64868164 C278.45118343 28.41349478 278.27385633 30.17834781 278.09689331 31.9432373 C277.61744829 36.7136251 277.1324954 41.48343849 276.64652634 46.25316548 C276.13881789 51.24563631 275.63621193 56.23862074 275.13305664 61.23155212 C274.18042076 70.67705693 273.22321945 80.12209322 272.26436329 89.56696838 C271.17256486 100.32356719 270.08587791 111.08068046 268.99961281 121.83783925 C266.765832 143.95757277 264.52565635 166.07665476 262.28125 188.1953125 C243.95675054 188.26552847 225.6322862 188.31836218 207.30768108 188.35074902 C198.79841795 188.36618939 190.28923862 188.38722451 181.7800293 188.42163086 C174.35965329 188.45162018 166.93933801 188.47090805 159.51890308 188.47757798 C155.59322609 188.48147417 151.66772276 188.49057104 147.74210167 188.51250267 C144.03948358 188.53301885 140.33710901 188.53911611 136.63443947 188.53463554 C134.64338686 188.53584131 132.65236015 188.55190365 130.66137695 188.568573 C116.43122514 188.5200702 104.78651693 185.11723342 94.3203125 175.31640625 C85.23266418 165.86316288 83.00623581 152.79224835 81.28125 140.1953125 C80.84425781 141.62810547 80.84425781 141.62810547 80.3984375 143.08984375 C75.79596509 157.78037112 69.53998554 171.40620232 55.95703125 179.8515625 C34.4187814 190.66785148 9.94889985 189.34298053 -13.4609375 189.29296875 C-16.04167656 189.29110068 -18.62241598 189.28967862 -21.20315552 189.28868103 C-27.26591259 189.28527281 -33.32864845 189.27741793 -39.3913976 189.26733154 C-46.30331731 189.25608631 -53.21523799 189.25063893 -60.1271646 189.24563611 C-74.32436955 189.23523254 -88.52155912 189.21768598 -102.71875 189.1953125 C-102.56871355 186.36782347 -102.41673037 183.54046054 -102.26367188 180.71313477 C-102.2219989 179.92403969 -102.18032593 179.13494461 -102.13739014 178.32193756 C-101.71485776 170.56834425 -101.00727717 162.8580366 -100.21875 155.1328125 C-100.08699551 153.77801851 -99.95548479 152.42320078 -99.82421875 151.06835938 C-99.69660156 149.79927734 -99.56898438 148.53019531 -99.4375 147.22265625 C-99.32341797 146.08562256 -99.20933594 144.94858887 -99.09179688 143.77709961 C-98.71875 141.1953125 -98.71875 141.1953125 -97.71875 140.1953125 C-96.09207095 140.09144255 -94.46089515 140.05734357 -92.83091736 140.05055237 C-91.77250641 140.04365387 -90.71409546 140.03675537 -89.62361145 140.02964783 C-88.45223129 140.02703445 -87.28085114 140.02442108 -86.07397461 140.02172852 C-84.23497589 140.011698 -84.23497589 140.011698 -82.35882568 140.00146484 C-79.68508995 139.98737295 -77.01140961 139.97505286 -74.33765984 139.96551704 C-70.10531882 139.95008369 -65.87305304 139.92613131 -61.64076233 139.90061951 C-49.60308594 139.82937703 -37.5653653 139.76976919 -25.52758789 139.71850586 C-18.88433253 139.69013958 -12.24115088 139.65471804 -5.59797293 139.61185211 C-1.39616735 139.58516423 2.8055548 139.56720641 7.00742829 139.55581486 C10.24857246 139.54448881 13.48962693 139.52038046 16.73071289 139.49829102 C17.88792343 139.49770187 19.04513397 139.49711273 20.2374115 139.49650574 C26.24096863 139.44239033 31.57319279 139.13906902 37.28125 137.1953125 C38.86737501 134.93834823 38.86737501 134.93834823 39.28125 132.1953125 C39.52875 131.3703125 39.77625 130.5453125 40.03125 129.6953125 C40.36451985 126.36261403 40.1935016 124.99014176 38.28125 122.1953125 C30.07199562 118.48016323 21.79623816 118.75448309 12.9609375 118.75390625 C11.37304485 118.7421051 9.78516318 118.7287343 8.19729614 118.71388245 C4.03072957 118.67785575 -0.13573989 118.6575544 -4.3024292 118.64233398 C-10.94734063 118.61743771 -17.59203712 118.57707724 -24.23675156 118.52043343 C-26.53127119 118.5043975 -28.8255796 118.50035326 -31.12014771 118.49742126 C-49.80030983 118.40542228 -68.18565279 116.87450638 -82.49609375 103.5390625 C-92.40608496 92.84736714 -95.09366963 78.65349985 -94.93359375 64.53125 C-93.84355708 47.60595327 -87.64289377 27.95461927 -74.71875 16.1953125 C-52.38352148 -0.22560317 -26.5875171 -0.11511478 0 0 Z " fill="#07072F" transform="translate(708.71875,15.8046875)"/>
<path d="M0 0 C3.59804304 0.01900222 7.19609706 0.02053548 10.79418254 0.02407622 C17.57938677 0.03332863 24.36444262 0.05784813 31.14958209 0.08812469 C38.88620466 0.12188324 46.62283505 0.13820813 54.35951316 0.153211 C70.2482678 0.18440546 86.13687514 0.23703045 102.02552104 0.30418181 C101.37928836 15.70234666 99.68681513 30.98995714 98.02552104 46.30418181 C97.40929378 46.30657017 96.79306651 46.30895852 96.15816569 46.31141925 C81.14222264 46.37063625 66.12645812 46.44622895 51.1106956 46.53989673 C43.8490832 46.58480228 36.58751926 46.6242289 29.32581401 46.65061736 C22.99418941 46.67364004 16.66271888 46.70708541 10.33121657 46.75288337 C6.98076931 46.77675867 3.63061458 46.79396945 0.28006816 46.80179572 C-3.46646916 46.81143223 -7.21245309 46.83948812 -10.95885396 46.87180877 C-12.61286969 46.86965613 -12.61286969 46.86965613 -14.30029988 46.86746001 C-20.54909582 46.94359213 -25.30379021 47.60918233 -30.97447896 50.30418181 C-35.21772204 55.43455128 -36.35449304 64.36423345 -37.97447896 70.30418181 C5.91552104 70.30418181 49.80552104 70.30418181 95.02552104 70.30418181 C95.02552104 76.38395635 94.85732164 82.07212641 94.15052104 88.05808806 C94.06173686 88.84441115 93.97295268 89.63073424 93.88147807 90.44088531 C93.60085314 92.91671297 93.31331772 95.39167867 93.02552104 97.86668181 C92.83235214 99.55998871 92.63963976 101.25334776 92.44739604 102.94675994 C91.97870488 107.06652128 91.50382072 111.18552542 91.02552104 115.30418181 C79.44300565 115.327756 67.86049633 115.34531918 56.27796149 115.35599399 C50.89489632 115.3611273 45.511848 115.36804166 40.12879252 115.37962127 C12.74322663 115.43700332 -14.60224923 115.19328737 -41.97447896 114.30418181 C-41.84321552 116.71487819 -41.70409076 119.12468855 -41.56041646 121.53465056 C-41.52424214 122.21394622 -41.48806783 122.89324187 -41.45079732 123.59312224 C-41.14720965 128.53919658 -40.5317138 132.07490882 -37.97447896 136.30418181 C-34.70017171 138.48705331 -33.74046178 138.55943574 -29.94415975 138.58265471 C-28.38556233 138.59939994 -28.38556233 138.59939994 -26.79547811 138.61648345 C-25.65612309 138.61864364 -24.51676808 138.62080382 -23.34288716 138.62302947 C-21.54269628 138.63809791 -21.54269628 138.63809791 -19.7061379 138.65347075 C-16.41506043 138.67908619 -13.12415581 138.69592695 -9.83301878 138.70889878 C-6.39364648 138.72451906 -2.95436184 138.75131277 0.48494792 138.77692962 C6.99781146 138.82373701 13.51069145 138.86047158 20.02363735 138.89360249 C27.43837206 138.93181007 34.85301877 138.98122377 42.26767933 139.03158665 C57.52022965 139.13493564 72.77282929 139.22418634 88.02552104 139.30418181 C88.11368919 145.58891756 87.81026607 151.68589953 87.15052104 157.93308806 C87.06173686 158.80819533 86.97295268 159.6833026 86.88147807 160.58492827 C86.60038645 163.34596489 86.31306475 166.10631047 86.02552104 168.86668181 C85.83239827 170.75270713 85.6396861 172.63877454 85.44739604 174.52488494 C84.9781792 179.11848376 84.50337869 183.71147416 84.02552104 188.30418181 C66.23982827 188.37442952 48.45417178 188.42724692 30.66837001 188.45961833 C22.40911781 188.47505202 14.14995209 188.49607421 5.89075541 188.53050017 C-1.31245342 188.56051012 -8.51559959 188.5797822 -15.71886921 188.5864473 C-19.52888542 188.59034003 -23.33872245 188.59941446 -27.14868093 188.62137198 C-30.74378239 188.64192097 -34.33863296 188.64797899 -37.93378758 188.64350486 C-39.86381685 188.64470788 -41.79381957 188.66075276 -43.72377706 188.67744231 C-57.83240456 188.62803551 -70.78005662 185.42311267 -81.28697896 175.55418181 C-99.90543094 155.48889716 -99.00503595 126.89818579 -98.06560445 101.30961394 C-96.63752978 69.88144952 -88.6122464 36.3821102 -64.86119771 14.34324431 C-46.23125794 -1.25549867 -22.87892492 -0.14161471 0 0 Z " fill="#07072F" transform="translate(311.97447896003723,15.695818185806274)"/>
<path d="M0 0 C17.21233059 -0.09377561 34.42458054 -0.16414095 51.6371088 -0.20724869 C59.63063704 -0.22780354 67.62400581 -0.25578726 75.61743164 -0.30175781 C82.59104114 -0.34184396 89.56453505 -0.36748413 96.53825659 -0.37635398 C100.22491529 -0.38153224 103.91124355 -0.39355167 107.59779549 -0.42292023 C128.90934925 -0.58594691 147.11210767 -0.67826156 164 14 C181.89375094 35.50926911 182.82669166 63.92243772 180.4609375 90.640625 C177.45515844 120.49337698 171.34321739 154.68001699 147.3125 175.25 C134.92243252 184.68096045 122.40730084 187.31223087 107.24023438 187.22705078 C105.85976164 187.22648581 104.47928831 187.2268049 103.09881592 187.22793579 C99.37208239 187.22850696 95.64547899 187.21679112 91.91877556 187.20278788 C88.01637313 187.19024095 84.11396734 187.1891069 80.21154785 187.18673706 C72.83109809 187.1805339 65.45070794 187.16413891 58.07028437 187.14403808 C49.6639794 187.12164277 41.25767151 187.11067653 32.85134411 187.10064721 C15.56752832 187.07977159 -1.71622953 187.04461835 -19 187 C-17.53713135 167.11704887 -15.59973992 147.29155834 -13.59927821 127.45722055 C-13.24779894 123.9694377 -12.89789941 120.48149701 -12.54796606 116.99355876 C-11.7236579 108.77769908 -10.89675085 100.56210396 -10.06811523 92.34667969 C-9.21464003 83.8845328 -8.3656188 75.42194708 -7.51869863 66.95914185 C-6.78738959 59.65309144 -6.05341695 52.34731202 -5.31727511 45.04174697 C-4.87923941 40.69438559 -4.44220586 36.34692951 -4.0077343 31.99921036 C-3.60121828 27.93243133 -3.19138229 23.86600059 -2.77894402 19.79981804 C-2.62818625 18.30795051 -2.47861216 16.81596283 -2.33029556 15.32385063 C-2.12812514 13.29184407 -1.92129946 11.26030225 -1.71421814 9.22879028 C-1.59974807 8.09150545 -1.485278 6.95422062 -1.36733913 5.78247261 C-1 3 -1 3 0 0 Z M43 46 C40.03 76.69 37.06 107.38 34 139 C47.0246875 139.2475 47.0246875 139.2475 60.3125 139.5 C63.01091064 139.55220703 65.70932129 139.60441406 68.48950195 139.65820312 C74.24071735 139.7678814 79.99209529 139.85999385 85.74371338 139.94580078 C88.74678944 139.99578544 91.74886442 140.06427296 94.75146484 140.13671875 C96.43195224 140.16490434 98.11245296 140.19231195 99.79296875 140.21875 C100.52179764 140.24199341 101.25062653 140.26523682 102.00154114 140.28918457 C108.73328478 140.35867251 113.8319468 138.52125928 119.2734375 134.703125 C132.06378423 122.02272394 134.18838062 99.55968472 134.3125 82.5 C134.3364338 71.93367085 133.90861382 60.75569327 127.79296875 51.75 C122.52350757 46.56160745 117.54356926 45.62288245 110.32055664 45.65942383 C109.57629897 45.65906222 108.8320413 45.65870062 108.06523037 45.65832806 C105.67992236 45.66054941 103.29533678 45.68331153 100.91015625 45.70703125 C99.42802264 45.71144765 97.94588435 45.71450476 96.46374512 45.71618652 C90.99659159 45.73185091 85.52953853 45.77373479 80.0625 45.8125 C61.7165625 45.9053125 61.7165625 45.9053125 43 46 Z " fill="#07072F" transform="translate(30,17)"/>
<path d="M0 0 C1.34165437 0.00056574 2.68330936 0.00024439 4.02496338 -0.00088501 C7.62749949 -0.00145319 11.22989937 0.01021331 14.83240414 0.02426291 C18.61199673 0.03686055 22.39159327 0.03794782 26.17120361 0.04031372 C33.31069274 0.04650217 40.4501198 0.06287688 47.58958173 0.0830127 C55.72512572 0.10545427 63.86067285 0.11638579 71.99624014 0.12640357 C88.71530306 0.14724579 105.43430373 0.18236988 122.15332031 0.22705078 C121.60653525 6.29640299 121.05507888 12.36530561 120.49926758 18.43383789 C120.31080364 20.49882478 120.12362221 22.56392913 119.93774414 24.62915039 C119.67051995 27.59569524 119.39870336 30.56178864 119.12597656 33.52783203 C119.00247581 34.91546501 119.00247581 34.91546501 118.8764801 36.33113098 C118.79647263 37.19179672 118.71646515 38.05246246 118.6340332 38.93920898 C118.56519424 39.69643753 118.49635529 40.45366608 118.4254303 41.23384094 C118.15332031 43.22705078 118.15332031 43.22705078 117.15332031 46.22705078 C116.54132499 46.22943913 115.92932966 46.23182749 115.29878902 46.23428822 C100.39169375 46.29348376 85.48474874 46.36906295 70.57783413 46.46276569 C63.36888022 46.50768711 56.15997532 46.54711011 48.95092773 46.57348633 C42.66582363 46.59649611 36.38087507 46.62992721 30.0958944 46.67575234 C26.76954217 46.69964474 23.44337589 46.71684487 20.11694145 46.72466469 C16.39893595 46.73428992 12.68149071 46.76233219 8.96362305 46.79467773 C7.86670135 46.79324265 6.76977966 46.79180756 5.63961792 46.79032898 C-1.76200727 46.88137258 -6.83384454 47.62505679 -12.59667969 52.60205078 C-17.72855268 58.58923594 -17.88575264 60.57870733 -18.84667969 69.22705078 C25.37332031 69.22705078 69.59332031 69.22705078 115.15332031 69.22705078 C114.54530414 80.17134189 113.90194697 90.92897143 112.65332031 101.78955078 C112.45802734 103.58682617 112.45802734 103.58682617 112.25878906 105.42041016 C111.28195881 114.09841229 111.28195881 114.09841229 110.15332031 115.22705078 C108.43239378 115.32329672 106.70748649 115.34892676 104.98387146 115.3473053 C103.86341431 115.34867996 102.74295715 115.35005463 101.58854675 115.35147095 C100.3484938 115.34787567 99.10844086 115.3442804 97.83081055 115.34057617 C95.88475418 115.34079521 95.88475418 115.34079521 93.89938354 115.34101868 C90.33136102 115.34130664 86.76337183 115.3354101 83.19535708 115.32844472 C79.47041411 115.32221099 75.74547045 115.32160737 72.02052307 115.32041931 C64.96214669 115.31730605 57.90378571 115.30909274 50.84541613 115.29906982 C42.8116906 115.28790852 34.77796436 115.28239819 26.74423301 115.27737439 C10.21391974 115.26691012 -6.31637801 115.24931078 -22.84667969 115.22705078 C-22.93215561 116.11210297 -23.01763153 116.99715515 -23.10569763 117.9090271 C-23.91080998 126.23813263 -24.71971946 134.56685867 -25.53292751 142.89517784 C-25.95089915 147.17715042 -26.36738615 151.45925672 -26.78051758 155.74169922 C-27.17905206 159.87226738 -27.58143748 164.00244368 -27.9865284 168.13237381 C-28.14061585 169.71033943 -28.29330061 171.28844266 -28.44457817 172.86668015 C-28.65623088 175.07230503 -28.87280591 177.27739382 -29.09057617 179.48242188 C-29.21270981 180.73928802 -29.33484344 181.99615417 -29.4606781 183.29110718 C-29.84667969 186.22705078 -29.84667969 186.22705078 -30.84667969 188.22705078 C-49.32667969 188.22705078 -67.80667969 188.22705078 -86.84667969 188.22705078 C-85.69710248 167.53466111 -85.69710248 167.53466111 -84.86279297 159.09008789 C-84.76993011 158.11990219 -84.67706726 157.14971649 -84.58139038 156.15013123 C-84.28044667 153.0178321 -83.97407354 149.88609745 -83.66699219 146.75439453 C-83.45127174 144.53399435 -83.23568817 142.31358086 -83.02023315 140.09315491 C-82.5706289 135.46980258 -82.11805974 130.84675187 -81.66357422 126.22387695 C-81.08613339 120.34596892 -80.51821182 114.46718431 -79.95277596 108.58811092 C-79.51123377 104.01216004 -79.06354611 99.43682505 -78.61419296 94.86163521 C-78.40241555 92.69605486 -78.19271047 90.53027066 -77.98526382 88.36427116 C-75.32606793 60.66757186 -72.19366949 34.229123 -50.84667969 14.22705078 C-36.19995277 2.47960265 -18.20438716 -0.10654742 0 0 Z " fill="#07072F" transform="translate(492.8466796875,15.77294921875)"/>
<path d="M0 0 C1.0621875 0.24878906 2.124375 0.49757813 3.21875 0.75390625 C4.3176086 5.58739915 3.99234957 9.23441416 2.96875 14.06640625 C2.76221802 15.04782593 2.76221802 15.04782593 2.55151367 16.04907227 C1.45243417 21.10059875 0.00412861 25.90787861 -1.78125 30.75390625 C5.96748036 25.10145077 13.85837753 18.79446495 19.21875 10.75390625 C21.65625 10.25390625 21.65625 10.25390625 24.21875 10.75390625 C27.06146569 14.52785639 27.79793448 17.93384961 28.40625 22.56640625 C28.56480469 23.72785156 28.72335938 24.88929688 28.88671875 26.0859375 C28.99628906 26.96636719 29.10585937 27.84679687 29.21875 28.75390625 C34.70143166 28.04694867 36.51215781 26.91252188 40.21875 22.75390625 C41.33876661 21.64468498 42.464125 20.54084083 43.59375 19.44140625 C46.11553043 16.9305663 48.47188453 14.33591081 50.78125 11.62890625 C58.22331715 3.07136148 58.22331715 3.07136148 62.96875 2.31640625 C65.21875 2.75390625 65.21875 2.75390625 67.21875 4.75390625 C67.51257469 11.90364043 65.26490849 18.98485365 63.21875 25.75390625 C63.90710938 25.06554687 63.90710938 25.06554687 64.609375 24.36328125 C65.87500067 23.09765558 67.14198149 21.83338394 68.41015625 20.5703125 C69.76158183 19.21304923 71.0900309 17.83283787 72.40625 16.44140625 C75.0634141 13.96749484 77.1475983 12.9413578 80.71875 12.31640625 C83.21875 12.75390625 83.21875 12.75390625 85.40625 14.75390625 C87.63180294 18.43758007 88.36317667 21.54733736 89.21875 25.75390625 C93.67446047 24.33799825 96.17116134 22.14937959 99.40625 18.81640625 C100.26605469 17.94113281 101.12585938 17.06585938 102.01171875 16.1640625 C104.32245529 13.76391349 104.32245529 13.76391349 106.21875 10.75390625 C108.65625 10.25390625 108.65625 10.25390625 111.21875 10.75390625 C114.06146569 14.52785639 114.79793448 17.93384961 115.40625 22.56640625 C115.56480469 23.72785156 115.72335937 24.88929688 115.88671875 26.0859375 C115.99628906 26.96636719 116.10585938 27.84679687 116.21875 28.75390625 C121.67501184 28.37323682 123.61140088 26.75528889 127.21875 22.75390625 C128.28318646 21.75112312 129.35933576 20.76066487 130.4453125 19.78125 C131.0021875 19.27400391 131.5590625 18.76675781 132.1328125 18.24414062 C133.27966686 17.20333102 134.42812409 16.16428503 135.578125 15.12695312 C137.93413878 12.97640567 140.04090216 10.99561764 141.9375 8.41796875 C143.21875 6.75390625 143.21875 6.75390625 146.09375 6.19140625 C150.20567196 6.9315522 151.61790075 8.55857718 154.21875 11.75390625 C156.0516403 17.25257715 155.93207793 21.84620418 153.40625 27.00390625 C152.22997365 29.14789932 151.05629478 30.95847949 149.53125 32.87890625 C147.77275099 35.39104769 147.65381229 37.75319623 147.21875 40.75390625 C157.81829987 32.82077121 167.38784696 23.2821612 175.5 12.80859375 C177.21875 10.75390625 177.21875 10.75390625 179.78125 10.12890625 C182.21875 10.75390625 182.21875 10.75390625 183.796875 12.8671875 C185.41555954 16.15347288 185.93027153 18.94164713 186.40625 22.56640625 C186.56480469 23.72785156 186.72335937 24.88929688 186.88671875 26.0859375 C186.99628906 26.96636719 187.10585938 27.84679687 187.21875 28.75390625 C194.49909322 28.57189767 198.42767415 23.61057409 203.21337891 18.71240234 C205.17495329 16.6414991 207.10813816 14.54804349 209.03125 12.44140625 C210.3266197 11.02607128 211.62468612 9.61319847 212.92578125 8.203125 C213.4875708 7.58783936 214.04936035 6.97255371 214.62817383 6.33862305 C216.89837035 4.07678949 218.55372062 2.81878717 221.78125 2.50390625 C224.21875 2.75390625 224.21875 2.75390625 226.21875 4.75390625 C226.51257469 11.90364043 224.26490849 18.98485365 222.21875 25.75390625 C222.67765625 25.295 223.1365625 24.83609375 223.609375 24.36328125 C224.87500067 23.09765558 226.14198149 21.83338394 227.41015625 20.5703125 C228.76158183 19.21304923 230.0900309 17.83283787 231.40625 16.44140625 C234.0634141 13.96749484 236.1475983 12.9413578 239.71875 12.31640625 C242.21875 12.75390625 242.21875 12.75390625 244.40625 14.75390625 C246.63180294 18.43758007 247.36317667 21.54733736 248.21875 25.75390625 C249.86875 25.42390625 251.51875 25.09390625 253.21875 24.75390625 C253.87875 26.40390625 254.53875 28.05390625 255.21875 29.75390625 C254.19807072 30.79572386 253.15103444 31.81175718 252.09375 32.81640625 C251.51367188 33.38488281 250.93359375 33.95335937 250.3359375 34.5390625 C248.21875 35.75390625 248.21875 35.75390625 245.21875 35.75390625 C241.42757363 34.49018079 240.45778199 33.0315768 238.34375 29.69140625 C237.74820312 28.77230469 237.15265625 27.85320312 236.5390625 26.90625 C236.10335938 26.19597656 235.66765625 25.48570312 235.21875 24.75390625 C229.53592767 27.76245925 225.69297872 31.03225466 221.34375 35.81640625 C215.96219758 41.52411336 215.96219758 41.52411336 211.78125 42.81640625 C209.21875 42.75390625 209.21875 42.75390625 208.21875 41.75390625 C207.8091033 36.07005831 208.9258958 31.61259446 210.71875 26.31640625 C210.95722656 25.58486328 211.19570313 24.85332031 211.44140625 24.09960938 C212.02471172 22.31469465 212.62044935 20.53385068 213.21875 18.75390625 C208.45940662 20.9574923 205.48668126 24.41743816 201.90625 28.19140625 C192.16322224 37.48126993 192.16322224 37.48126993 185.84375 38.06640625 C182.21875 37.75390625 182.21875 37.75390625 180.03125 36.25390625 C177.6379631 32.95282087 175.90797978 29.45583535 174.21875 25.75390625 C170.26827342 27.3755816 167.45862085 30.10899325 164.40625 33.00390625 C161.01519554 36.20463849 157.65645199 39.22149832 153.90625 42.00390625 C152.5759375 43.36515625 152.5759375 43.36515625 151.21875 44.75390625 C151.1571558 48.16527101 151.1571558 48.16527101 152.21875 51.75390625 C152.73211711 57.51167075 152.56165439 61.84401542 149.21875 66.75390625 C143.67942924 73.28648452 138.12419368 78.09984709 129.46875 79.25390625 C126.21875 78.75390625 126.21875 78.75390625 123.71875 77.19140625 C122.08112963 74.53027315 121.70395235 72.94050223 122.35546875 69.8671875 C125.1780725 62.95755569 130.65858966 57.28890442 135.78125 52.00390625 C137.79460184 49.90666608 137.79460184 49.90666608 139.21875 47.75390625 C139.13707511 44.1821451 139.13707511 44.1821451 138.21875 40.75390625 C139.15845776 36.45687896 141.16215017 32.77143246 143.46875 29.06640625 C145.47973297 25.96152972 145.47973297 25.96152972 145.03125 22.94140625 C144.2629188 20.752409 144.2629188 20.752409 143.21875 18.75390625 C137.4003561 20.41939447 134.2016252 24.60180556 130.2109375 28.87890625 C125.62578941 33.66056069 121.31441496 37.33415507 114.53125 38.25390625 C111.21875 37.75390625 111.21875 37.75390625 109.03125 36.25390625 C106.6379631 32.95282087 104.90797978 29.45583535 103.21875 25.75390625 C98.72703124 27.70997732 95.4690258 30.93430205 91.8515625 34.171875 C89.21875 35.75390625 89.21875 35.75390625 86.140625 35.80859375 C82.44856279 34.4758975 81.42335763 32.97718631 79.34375 29.69140625 C78.45042969 28.31275391 78.45042969 28.31275391 77.5390625 26.90625 C77.10335937 26.19597656 76.66765625 25.48570312 76.21875 24.75390625 C70.53592767 27.76245925 66.69297872 31.03225466 62.34375 35.81640625 C56.96219758 41.52411336 56.96219758 41.52411336 52.78125 42.81640625 C50.21875 42.75390625 50.21875 42.75390625 49.21875 41.75390625 C48.8091033 36.07005831 49.9258958 31.61259446 51.71875 26.31640625 C52.07646484 25.2190918 52.07646484 25.2190918 52.44140625 24.09960938 C53.02471172 22.31469465 53.62044935 20.53385068 54.21875 18.75390625 C49.6873586 20.87173549 46.78200732 23.86825054 43.58984375 27.71875 C38.89774536 33.35556619 35.10999147 37.22628029 27.53125 38.25390625 C24.21875 37.75390625 24.21875 37.75390625 22.03125 36.25390625 C19.6379631 32.95282087 17.90797978 29.45583535 16.21875 25.75390625 C12.81364631 27.28305004 10.11709812 29.28725304 7.21875 31.62890625 C6.373125 32.30695313 5.5275 32.985 4.65625 33.68359375 C-0.77943038 38.21551067 -0.77943038 38.21551067 -2.78125 44.75390625 C-3.11125 45.41390625 -3.44125 46.07390625 -3.78125 46.75390625 C-3.100625 46.40328125 -2.42 46.05265625 -1.71875 45.69140625 C1.9275289 44.52770022 4.50364978 45.02545523 8.21875 45.75390625 C8.68169227 51.42494905 7.73036868 55.30313374 4.21875 59.75390625 C1.12805278 62.81650623 -2.16457456 65.34278929 -5.78125 67.75390625 C-8.46875 67.37890625 -8.46875 67.37890625 -10.78125 66.75390625 C-11.28125 64.56640625 -11.28125 64.56640625 -10.78125 61.75390625 C-7.74433174 59.25087544 -4.28788659 57.50722454 -0.78125 55.75390625 C-0.45125 54.76390625 -0.12125 53.77390625 0.21875 52.75390625 C-0.57789063 53.09615234 -0.57789063 53.09615234 -1.390625 53.4453125 C-2.09703125 53.73277344 -2.8034375 54.02023437 -3.53125 54.31640625 C-4.22734375 54.60644531 -4.9234375 54.89648438 -5.640625 55.1953125 C-8.08137784 55.83222428 -9.4216155 55.55639456 -11.78125 54.75390625 C-11.03125 47.12890625 -11.03125 47.12890625 -8.78125 43.75390625 C-11.25625 44.24890625 -11.25625 44.24890625 -13.78125 44.75390625 C-16.05266454 39.35929672 -15.98538361 34.49232876 -15.78125 28.75390625 C-13.40625 27.69140625 -13.40625 27.69140625 -10.78125 26.75390625 C-10.12125 27.08390625 -9.46125 27.41390625 -8.78125 27.75390625 C-8.45125 23.13390625 -8.12125 18.51390625 -7.78125 13.75390625 C-14.51086862 18.64817434 -20.89095537 23.86361162 -26.78125 29.75390625 C-27.44125 27.77390625 -28.10125 25.79390625 -28.78125 23.75390625 C-27.81445312 22.85929687 -26.84765625 21.9646875 -25.8515625 21.04296875 C-24.91280273 20.17103882 -24.91280273 20.17103882 -23.95507812 19.28149414 C-22.58337288 18.00769779 -21.2096548 16.73606575 -19.83398438 15.46655273 C-16.72547108 12.58065052 -13.66549324 9.69619182 -10.8046875 6.5625 C-9.97195312 5.65628906 -9.13921875 4.75007813 -8.28125 3.81640625 C-7.5696875 3.00300781 -6.858125 2.18960937 -6.125 1.3515625 C-3.78125 -0.24609375 -3.78125 -0.24609375 0 0 Z M141.21875 53.75390625 C139.77601615 55.31157487 138.33978292 56.87526582 136.90625 58.44140625 C135.70548828 59.74658203 135.70548828 59.74658203 134.48046875 61.078125 C131.07072985 65.11209935 129.21875 67.38061934 129.21875 72.75390625 C134.10221661 72.29963029 136.69699579 71.18047792 140.21875 67.75390625 C143.69608142 63.43721897 143.48952872 60.07922113 143.21875 54.75390625 C142.55875 54.42390625 141.89875 54.09390625 141.21875 53.75390625 Z " fill="#07072F" transform="translate(181.78125,265.24609375)"/>
<path d="M0 0 C6.06247953 2.93239499 11.58633189 6.08297528 15 12 C15.67266645 15.4810489 15.71284455 18.52342206 15 22 C13 24.75 13 24.75 10 27 C9.43023438 27.46792969 8.86046875 27.93585938 8.2734375 28.41796875 C0.38485088 34.73208438 -8.72563021 39.10705465 -18 43 C-16.87924653 51.33093414 -5.2697229 57.43366668 1.08398438 62.33178711 C3.75544954 64.36667984 6.44373639 66.29653795 9.23828125 68.1640625 C16.61196785 73.11810875 16.61196785 73.11810875 17.90234375 76.05078125 C18.1875 78 18.1875 78 18 81 C15 82 15 82 12.99462891 81.2590332 C12.24616699 80.86031006 11.49770508 80.46158691 10.7265625 80.05078125 C9.9015625 79.61443359 9.0765625 79.17808594 8.2265625 78.72851562 C7.36804688 78.26123047 6.50953125 77.79394531 5.625 77.3125 C4.34882812 76.64057617 4.34882812 76.64057617 3.046875 75.95507812 C-1.31950433 73.61886115 -5.22174318 71.23087686 -9 68 C-10.65559244 66.79710861 -12.32225691 65.60929869 -14 64.4375 C-14.825 63.85871094 -15.65 63.27992188 -16.5 62.68359375 C-18.94474274 61.03721231 -21.47260031 59.51643982 -24 58 C-25.32 63.94 -26.64 69.88 -28 76 C-29.98 76.495 -29.98 76.495 -32 77 C-34 75 -34 75 -34.23046875 72.79296875 C-34.15761656 68.37547693 -33.91146399 64.32945393 -33 60 C-32.75906818 57.24023551 -32.81964567 54.7954921 -33 52 C-34.43750191 50.31201173 -34.43750191 50.31201173 -36 49 C-36.4375 46.5 -36.4375 46.5 -36 44 C-35.01966797 43.40832031 -35.01966797 43.40832031 -34.01953125 42.8046875 C-31.66881343 41.0739977 -31.66881343 41.0739977 -31.390625 37.7265625 C-31.32339197 36.36022482 -31.27803698 34.9927035 -31.25 33.625 C-31.21817627 32.89055664 -31.18635254 32.15611328 -31.15356445 31.39941406 C-30.99211594 27.05613247 -31.00556917 22.72780097 -31.08984375 18.3828125 C-31.1043457 17.44614746 -31.11884766 16.50948242 -31.13378906 15.54443359 C-31.16903028 13.71092928 -31.22372223 11.87767418 -31.29980469 10.04541016 C-31.38950934 5.91820945 -31.37647207 3.6377487 -29.23828125 0.015625 C-20.78412848 -7.59753875 -9.56174182 -3.79657396 0 0 Z M-26 10 C-26.41746608 13.12635209 -26.41746608 13.12635209 -26 16 C-25.030625 15.814375 -24.06125 15.62875 -23.0625 15.4375 C-21.5465625 15.2209375 -21.5465625 15.2209375 -20 15 C-19.67 15.33 -19.34 15.66 -19 16 C-19.57914133 23.06552429 -20.78350311 30.0199062 -22 37 C-12.63359091 35.64456418 -2.05697135 29.29899076 4 22 C4.86700233 20.00834602 4.86700233 20.00834602 5 18 C2.08308522 12.69651859 -2.46101478 10.75840801 -8 9 C-17.46705414 6.39328062 -17.46705414 6.39328062 -26 10 Z " fill="#07072F" transform="translate(610,231)"/>
<path d="M0 0 C-0.03480469 1.30453125 -0.06960938 2.6090625 -0.10546875 3.953125 C-0.5212097 22.4717195 -0.5212097 22.4717195 7 39 C9.32587842 40.41518518 9.32587842 40.41518518 12 40 C21.4319585 35.49838344 27.78099513 25.27088919 33.46191406 16.82275391 C35.93038497 13.21821374 38.34681512 10.42351807 42 8 C42.99 8 43.98 8 45 8 C47.39675251 23.07956786 41.71702253 38.32274875 37.70703125 52.75 C36.65410172 56.54907578 35.65431689 60.34758672 34.76171875 64.1875 C34.58632568 64.93894287 34.41093262 65.69038574 34.23022461 66.46459961 C33.78422923 68.41296681 33.35245596 70.36457463 32.921875 72.31640625 C32.61765625 73.20199219 32.3134375 74.08757812 32 75 C31.01 75.33 30.02 75.66 29 76 C27.79117904 78.00016466 27.79117904 78.00016466 27 80 C26.01 79.67 25.02 79.34 24 79 C24.17128418 78.00782471 24.34256836 77.01564941 24.51904297 75.9934082 C25.16508178 72.24930793 25.80956165 68.50494061 26.45361328 64.76049805 C26.73054362 63.15170287 27.00787529 61.54297672 27.28564453 59.93432617 C28.94854195 50.30212792 30.5600748 40.66852903 32 31 C31.61255615 31.42821045 31.2251123 31.8564209 30.82592773 32.29760742 C29.03662838 34.26724644 27.23718942 36.22735195 25.4375 38.1875 C24.82841797 38.86103516 24.21933594 39.53457031 23.59179688 40.22851562 C14.17447119 50.44307523 14.17447119 50.44307523 7.4375 51.625 C3.00344221 50.81880767 1.12865458 49.19976037 -2 46 C-3.875 43.1875 -3.875 43.1875 -5 41 C-7.71172129 49.09884619 -8.40440214 57.60186181 -9.5 66.03710938 C-9.665 67.25591797 -9.83 68.47472656 -10 69.73046875 C-10.144375 70.83801514 -10.28875 71.94556152 -10.4375 73.08666992 C-10.96149128 75.80055355 -11.44242595 77.72439774 -13 80 C-16.125 80.75 -16.125 80.75 -19 81 C-20.17531731 75.7545731 -19.84164458 71.13932845 -19.29296875 65.859375 C-19.16478508 64.53779388 -19.16478508 64.53779388 -19.03401184 63.18951416 C-18.75914857 60.37556712 -18.47337614 57.56284719 -18.1875 54.75 C-18.00647037 52.90631773 -17.82612587 51.06256805 -17.64648438 49.21875 C-16.59352481 38.49307204 -15.48895662 27.77122688 -14.2237854 17.0682373 C-14.06265458 15.5790572 -13.93129075 14.08654796 -13.81893921 12.59289551 C-13.75260284 11.79363647 -13.68626648 10.99437744 -13.61791992 10.17089844 C-13.56609055 9.44368591 -13.51426117 8.71647339 -13.46086121 7.96722412 C-12.42892015 3.56229848 -8.42510511 1.89578035 -4.8125 -0.375 C-3 -1 -3 -1 0 0 Z " fill="#07072F" transform="translate(648,225)"/>
<path d="M0 0 C-0.77649958 20.77805775 -1.94868432 42.05460583 -5.9375 62.5 C-6.08292236 63.26304443 -6.22834473 64.02608887 -6.37817383 64.81225586 C-7.46315045 69.8802614 -9.15158109 74.63534783 -12 79 C-14.60375051 80.62734407 -15.94242592 81.12565237 -18.97265625 80.765625 C-23.74941548 78.9616851 -26.15585855 72.83363175 -28.1796875 68.4375 C-28.9673684 66.5253367 -29.73971521 64.60681416 -30.5 62.68359375 C-32.48211948 57.81604512 -34.64534929 53.03745976 -36.8125 48.25 C-37.22218018 47.34338623 -37.63186035 46.43677246 -38.05395508 45.50268555 C-39.03455805 43.33447957 -40.01653249 41.16690781 -41 39 C-42.04505559 42.39479922 -43.0856374 45.79095368 -44.125 49.1875 C-44.44049805 50.21584961 -44.75599609 51.24419922 -45.08105469 52.30371094 C-46.68183593 57.55241093 -48.2411584 62.80629481 -49.6953125 68.09765625 C-49.95812012 69.04938721 -50.22092773 70.00111816 -50.49169922 70.98168945 C-50.98892406 72.79689631 -51.47783511 74.61440547 -51.95751953 76.43432617 C-52.29565674 77.66566284 -52.29565674 77.66566284 -52.640625 78.921875 C-52.83172852 79.63956055 -53.02283203 80.35724609 -53.21972656 81.09667969 C-54.11441748 83.27909845 -55.2426817 84.45370543 -57 86 C-57.99 85.67 -58.98 85.34 -60 85 C-58.80316995 76.87702422 -57.46722859 68.78145968 -56.08984375 60.6875 C-55.7362929 58.60156847 -55.38277794 56.51563086 -55.02929688 54.4296875 C-54.48357057 51.21076075 -53.93615474 47.99216676 -53.38354492 44.77441406 C-50.61654381 29.06816394 -50.61654381 29.06816394 -49.27563477 13.1953125 C-49 11 -49 11 -47 9 C-43.9262254 8.34600541 -41.14400906 8 -38 8 C-36.31201173 6.56249809 -36.31201173 6.56249809 -35 5 C-34.01 5.33 -33.02 5.66 -32 6 C-32.76106195 12.46902655 -32.76106195 12.46902655 -34.125 15.5 C-36.02592626 20.9312179 -33.59961245 26.63815904 -31.70703125 31.82421875 C-31.47851974 32.45173538 -31.25000824 33.07925201 -31.01457214 33.7257843 C-30.5312591 35.04719656 -30.04449686 36.36735192 -29.55444336 37.6862793 C-28.82211518 39.66156526 -28.10466658 41.64179113 -27.38867188 43.62304688 C-24.43152174 51.70698504 -21.04055288 59.39158284 -17 67 C-16.67 67 -16.34 67 -16 67 C-13.02962614 53.8063491 -11.3852214 40.91844435 -10.85986328 27.3918457 C-10.43576917 18.73876398 -9.82171297 8.49700594 -3.98828125 1.6328125 C-2 0 -2 0 0 0 Z " fill="#07072F" transform="translate(806,225)"/>
<path d="M0 0 C15.02241347 0.2388301 30.15588395 8.53572778 40.84765625 18.6171875 C46.21626319 24.5529937 47.09910535 30.22505017 46.81640625 38.140625 C45.47144002 49.62136763 37.96562006 59.93438054 30.4375 68.375 C32.52223947 67.92310561 34.60525036 67.46323175 36.6875 67 C37.84765625 66.74476563 39.0078125 66.48953125 40.203125 66.2265625 C42.89802401 65.51703595 45.03275832 64.74403611 47.4375 63.375 C48.0975 65.355 48.7575 67.335 49.4375 69.375 C44.31922635 71.66212445 39.58218184 73.47162942 34 74.1875 C28.39124991 75.0576869 24.69999835 77.52190284 20.0703125 80.6875 C14.14348993 84.48629429 8.40138189 85.8195031 1.4375 85.375 C1.1075 84.055 0.7775 82.735 0.4375 81.375 C3.78224156 78.14523393 6.72608342 75.38926983 11.25 74.0625 C18.89147886 71.57492306 24.67929972 64.57217214 29.4375 58.375 C30.07171875 57.570625 30.7059375 56.76625 31.359375 55.9375 C35.74711255 49.78716702 37.51012929 44.99238479 37.05078125 37.390625 C35.57273261 30.12276801 30.38370767 25.82492665 24.5390625 21.6953125 C21.2814862 19.64873111 17.92617799 17.99474335 14.4375 16.375 C14.32019531 17.47585937 14.20289063 18.57671875 14.08203125 19.7109375 C13.4337983 24.88544848 12.28062257 29.91899129 11.125 35 C9.74172726 41.14350489 8.41751109 47.27325289 7.39453125 53.48828125 C7.23186768 54.46651855 7.0692041 55.44475586 6.90161133 56.45263672 C6.60104715 58.30471917 6.31478394 60.15920256 6.0456543 62.01611328 C5.08865874 67.8713931 3.4045034 72.83026995 -0.5625 77.375 C-1.2225 77.375 -1.8825 77.375 -2.5625 77.375 C-3.61649673 74.21300981 -3.56412674 72.49289404 -3.29296875 69.2109375 C-3.20982422 68.17928467 -3.12667969 67.14763184 -3.04101562 66.0847168 C-2.89696289 64.43403198 -2.89696289 64.43403198 -2.75 62.75 C-2.65525391 61.62440674 -2.56050781 60.49881348 -2.46289062 59.33911133 C-1.6857199 50.32380219 -0.7608623 41.34369565 0.4375 32.375 C0.57929688 31.21097656 0.72109375 30.04695313 0.8671875 28.84765625 C2.19795726 19.21708561 2.19795726 19.21708561 6.4375 15.375 C7.0975 15.045 7.7575 14.715 8.4375 14.375 C7.58285156 14.02308594 6.72820312 13.67117187 5.84765625 13.30859375 C-3.03307825 9.33972407 -3.03307825 9.33972407 -4.6171875 6.453125 C-4.875 4.5625 -4.875 4.5625 -4.5625 1.375 C-3.5625 0.375 -3.5625 0.375 0 0 Z " fill="#07072F" transform="translate(472.5625,226.625)"/>
<path d="M0 0 C1.13643966 3.40931897 0.86747764 4.00335456 -0.4375 7.1875 C-0.86869141 8.26064453 -0.86869141 8.26064453 -1.30859375 9.35546875 C-1.65083984 10.16951172 -1.65083984 10.16951172 -2 11 C-1.2575 11.268125 -0.515 11.53625 0.25 11.8125 C2.95639585 12.98117093 4.88022545 13.95593169 7 16 C7.99972535 19.6720681 8.07872978 23.0861293 8 26.875 C7.96201667 30.32304225 8.05745044 33.38938631 8.5625 36.8125 C9.05761788 40.41978742 8.65498965 43.43394524 8 47 C8.66 47 9.32 47 10 47 C9.85433594 47.64839844 9.70867188 48.29679687 9.55859375 48.96484375 C8.84996345 52.81523358 8.46414583 56.67000146 8.0625 60.5625 C7.46998239 66.01056965 6.8647557 71.45308854 6.0625 76.875 C5.92972656 77.77992188 5.79695312 78.68484375 5.66015625 79.6171875 C4.90226205 82.35278196 3.96902663 83.95980373 2 86 C1.01 86 0.02 86 -1 86 C-1 76.1 -1 66.2 -1 56 C-7.57524311 56.73058257 -11.57163653 57.3073871 -17.4375 59.5625 C-23.83852691 62 -23.83852691 62 -26 62 C-26.15855469 62.54785156 -26.31710937 63.09570312 -26.48046875 63.66015625 C-28.08590968 69.11510746 -29.79116375 74.53449909 -31.5625 79.9375 C-31.77221436 80.5879126 -31.98192871 81.2383252 -32.19799805 81.90844727 C-33.20572149 84.95389651 -34.20589627 87.3088444 -36 90 C-37.32 90 -38.64 90 -40 90 C-41.16983989 86.57032105 -40.81325413 84.45660565 -39.78515625 81.015625 C-39.51123047 80.08105469 -39.23730469 79.14648438 -38.95507812 78.18359375 C-38.66052734 77.21550781 -38.36597656 76.24742187 -38.0625 75.25 C-37.77181641 74.26644531 -37.48113281 73.28289062 -37.18164062 72.26953125 C-36.46327231 69.84356612 -35.73579178 67.42072642 -35 65 C-35.99 65 -36.98 65 -38 65 C-38.2935565 61.94701241 -38.43550205 59.04326734 -38 56 C-35.74967395 53.63123574 -33.88305222 52.44152611 -31 51 C-30.15006411 48.98997617 -29.39628774 46.93902683 -28.6875 44.875 C-28.4723877 44.2569751 -28.25727539 43.6389502 -28.03564453 43.00219727 C-26.87602764 39.65008757 -25.76244079 36.28403796 -24.66796875 32.91015625 C-24.45116455 32.24580566 -24.23436035 31.58145508 -24.01098633 30.89697266 C-23.40375363 29.02608989 -22.80707942 27.15178998 -22.2109375 25.27734375 C-21 22 -21 22 -19.3515625 19.265625 C-17.7278318 16.98345413 -17.7278318 16.98345413 -18 13.8125 C-18 12.884375 -18 11.95625 -18 11 C-15 9 -15 9 -12 9 C-11.690625 8.1646875 -11.690625 8.1646875 -11.375 7.3125 C-8.57044464 2.59574781 -5.49978954 0 0 0 Z M-9 23 C-14.90308245 29.15973821 -21 42.55892351 -21 51 C-18.79112243 50.88501733 -16.58289213 50.75756495 -14.375 50.625 C-13.14523437 50.55539062 -11.91546875 50.48578125 -10.6484375 50.4140625 C-7.16346145 50.0185513 -4.26950399 49.23738151 -1 48 C0.64810466 36.49729129 0.64810466 36.49729129 -3.375 25.9375 C-4.24125 24.968125 -5.1075 23.99875 -6 23 C-6.99 23 -7.98 23 -9 23 Z " fill="#07072F" transform="translate(730,224)"/>
<path d="M0 0 C3.04488797 -0.15730049 5.4638353 0.00428412 8.3046875 1.140625 C10.73983035 4.38748213 10.12129314 7.15139389 9.8046875 11.140625 C9.4746875 11.800625 9.1446875 12.460625 8.8046875 13.140625 C8.0415625 12.975625 7.2784375 12.810625 6.4921875 12.640625 C-0.64428499 11.67296771 -8.56608296 10.96411918 -15.1953125 14.140625 C-18.16797197 19.8261228 -19.47415825 25.85195835 -20.8828125 32.078125 C-21.10775391 33.04814453 -21.33269531 34.01816406 -21.56445312 35.01757812 C-22.11388453 37.39065419 -22.65734092 39.76492972 -23.1953125 42.140625 C-22.42058594 41.50511719 -21.64585937 40.86960937 -20.84765625 40.21484375 C-14.1820068 35.00208991 -5.4333895 34.26644057 2.8046875 35.140625 C4.8046875 37.140625 4.8046875 37.140625 4.9921875 40.640625 C4.8046875 44.140625 4.8046875 44.140625 3.8046875 46.140625 C2.58845703 46.10582031 2.58845703 46.10582031 1.34765625 46.0703125 C-11.96336548 45.63711697 -11.96336548 45.63711697 -24.1953125 50.140625 C-26.71384161 54.5021837 -26.84656135 59.53310284 -27.3203125 64.453125 C-27.40667969 65.28908203 -27.49304688 66.12503906 -27.58203125 66.98632812 C-27.79296792 69.0371013 -27.99502896 71.08878403 -28.1953125 73.140625 C-15.76847721 71.87283675 -3.78484121 69.97777999 7.8046875 65.140625 C8.4646875 67.120625 9.1246875 69.100625 9.8046875 71.140625 C-4.11235965 79.28432713 -16.85318704 84.18373939 -33.1953125 83.140625 C-33.1953125 81.820625 -33.1953125 80.500625 -33.1953125 79.140625 C-34.1853125 79.140625 -35.1753125 79.140625 -36.1953125 79.140625 C-37.35303839 73.15493582 -37.00893636 67.74516778 -36.3828125 61.703125 C-36.28661621 60.73101074 -36.19041992 59.75889648 -36.09130859 58.75732422 C-35.80213248 55.88402115 -35.49946463 53.01237506 -35.1953125 50.140625 C-35.11909668 49.37379395 -35.04288086 48.60696289 -34.96435547 47.81689453 C-33.4025665 32.15914484 -31.90934333 17.72306676 -19.61328125 6.859375 C-12.75459755 1.4107983 -8.34716871 0.53469408 0 0 Z " fill="#07072F" transform="translate(562.1953125,224.859375)"/>
<path d="M0 0 C0.12378879 4.87797898 -0.28308203 9.27047264 -1.2421875 14.05078125 C-1.5058736 15.39351994 -1.76937595 16.73629473 -2.03271484 18.07910156 C-2.17070496 18.77072388 -2.30869507 19.46234619 -2.4508667 20.17492676 C-6.71593947 41.11163153 -6.71593947 41.11163153 -7.93359375 62.3828125 C-7.91699707 63.29708008 -7.90040039 64.21134766 -7.88330078 65.15332031 C-7.83729576 66.92181696 -7.76548076 68.6898973 -7.66357422 70.45605469 C-7.46213343 76.41242959 -7.46213343 76.41242959 -10.3671875 79.5859375 C-13 81 -13 81 -15.3125 80.75 C-16.1478125 80.37875 -16.1478125 80.37875 -17 80 C-17.9064054 74.56881886 -18.19130097 69.31522455 -18.1875 63.8125 C-18.18886963 62.95479004 -18.19023926 62.09708008 -18.19165039 61.21337891 C-18.13739307 53.84376052 -17.50547037 46.58628109 -16.6237793 39.27270508 C-15.92336038 35.02357806 -15.92336038 35.02357806 -17 31 C-17.88781593 24.26528204 -16.79900233 18.35687133 -14.6875 12 C-14.47464355 11.35329346 -14.26178711 10.70658691 -14.04248047 10.0402832 C-12.40463505 5.41272963 -10.96543909 2.95752161 -6.5625 0.8125 C-4 0 -4 0 0 0 Z " fill="#07072F" transform="translate(154,227)"/>
<path d="M0 0 C2.5625 0.5 2.5625 0.5 4.1484375 2.60546875 C5.75510665 5.89425835 6.27438532 8.69051125 6.75 12.3125 C6.90855469 13.47394531 7.06710937 14.63539063 7.23046875 15.83203125 C7.39482422 17.15267578 7.39482422 17.15267578 7.5625 18.5 C11.94827176 17.87432896 14.86994131 16.99790735 18.5625 14.5 C19.2225 16.15 19.8825 17.8 20.5625 19.5 C19.48380607 20.46355244 18.39931257 21.42061417 17.3125 22.375 C16.70921875 22.90867187 16.1059375 23.44234375 15.484375 23.9921875 C11.22116589 27.33690034 8.01455843 27.99564168 2.5625 27.5 C-0.10820745 25.38231783 -1.52933615 22.78819746 -3.125 19.8125 C-3.56199219 19.00425781 -3.99898437 18.19601562 -4.44921875 17.36328125 C-4.77535156 16.74839844 -5.10148438 16.13351562 -5.4375 15.5 C-7.93111571 16.70381448 -10.11893083 17.95428722 -12.4375 19.5 C-13.0975 17.52 -13.7575 15.54 -14.4375 13.5 C-13.73882813 12.81292969 -13.04015625 12.12585938 -12.3203125 11.41796875 C-11.41023437 10.51691406 -10.50015625 9.61585938 -9.5625 8.6875 C-8.65757812 7.79417969 -7.75265625 6.90085937 -6.8203125 5.98046875 C-1.33918469 0.27470455 -1.33918469 0.27470455 0 0 Z " fill="#07072F" transform="translate(843.4375,275.5)"/>
<path d="M0 0 C3.0625 1.0625 3.0625 1.0625 5.125 4.0625 C7.36990614 10.58468293 3.29331644 16.71324892 0.5 22.5 C-0.83473793 25.15700167 -1.82693979 26.95193979 -3.9375 29.0625 C-7.0625 29.1875 -7.0625 29.1875 -9.9375 29.0625 C-9.04709012 24.88515154 -8.15857958 20.76475278 -6.875 16.6875 C-5.81116892 12.57401982 -5.5147422 8.65001485 -5.28125 4.41796875 C-4.74087005 0.71513793 -3.68525839 0.07840975 0 0 Z " fill="#07072F" transform="translate(824.9375,226.9375)"/>
<path d="M0 0 C1.49697307 4.4909192 0.06227413 7.84556371 -2 12 C-4.8125 14.6875 -4.8125 14.6875 -8 16 C-11.375 15.25 -11.375 15.25 -14 14 C-14 10.12639061 -13.83314373 8.00833751 -11.328125 4.9765625 C-7.50136388 1.4519141 -5.3829565 -0.46112739 0 0 Z " fill="#07072F" transform="translate(373,245)"/>
<path d="M0 0 C1.49697307 4.4909192 0.06227413 7.84556371 -2 12 C-4.8125 14.6875 -4.8125 14.6875 -8 16 C-11.375 15.25 -11.375 15.25 -14 14 C-14 10.12639061 -13.83314373 8.00833751 -11.328125 4.9765625 C-7.50136388 1.4519141 -5.3829565 -0.46112739 0 0 Z " fill="#07072F" transform="translate(302,245)"/>
<path d="M0 0 C1.49697307 4.4909192 0.06227413 7.84556371 -2 12 C-4.8125 14.6875 -4.8125 14.6875 -8 16 C-11.375 15.25 -11.375 15.25 -14 14 C-14 10.12639061 -13.83314373 8.00833751 -11.328125 4.9765625 C-7.50136388 1.4519141 -5.3829565 -0.46112739 0 0 Z " fill="#07072F" transform="translate(215,245)"/>
<path d="M0 0 C1 3 1 3 -0.1875 6.5625 C-2 10 -2 10 -3.875 11.4375 C-6.32768847 12.08674107 -8.47352147 12.14035992 -11 12 C-11.75 9.875 -11.75 9.875 -12 7 C-8.82095768 1.09606427 -6.56365551 -0.17739609 0 0 Z " fill="#07072F" transform="translate(159,212)"/>
</svg>
